<svg version="1.1" id="Layer_1" xmlns="http://www.w3.org/2000/svg" xmlns:xlink="http://www.w3.org/1999/xlink" x="0px" y="0px"
	 viewBox="0 0 40 40" style="enable-background:new 0 0 40 40;" xml:space="preserve">
<path fill="#1C1E21" d="M12.5,8.8c1,0,2,0.1,2.9,0.3c0.9,0.2,1.6,0.5,2.2,0.9s1.1,1,1.4,1.7s0.5,1.6,0.5,2.6c0,1.1-0.2,2.1-0.8,2.8
	c-0.5,0.7-1.3,1.4-2.2,1.8c1.4,0.4,2.4,1.1,3,2.1c0.6,1,1,2.2,1,3.5c0,1.1-0.2,2.1-0.6,2.9c-0.4,0.8-1,1.5-1.8,2
	c-0.7,0.5-1.6,0.9-2.6,1.1c-1,0.2-1.9,0.4-2.9,0.4H2V8.8H12.5z M11.8,17.8c0.9,0,1.6-0.2,2.2-0.6c0.6-0.4,0.8-1.1,0.8-2
	c0-0.5-0.1-1-0.2-1.3s-0.4-0.6-0.7-0.8c-0.3-0.2-0.6-0.3-1-0.4s-0.8-0.1-1.3-0.1H6.9v5.2C6.9,17.8,11.8,17.8,11.8,17.8z M12.1,27.2
	c0.5,0,1-0.1,1.4-0.2c0.4-0.1,0.8-0.2,1.1-0.5c0.3-0.2,0.6-0.5,0.8-0.9c0.2-0.4,0.3-0.9,0.3-1.4c0-1.1-0.3-1.9-1-2.5
	c-0.6-0.5-1.5-0.7-2.6-0.7H6.9v6.2H12.1z M27.5,27.1c0.6,0.6,1.6,1,2.9,1c0.9,0,1.7-0.2,2.3-0.6c0.6-0.5,1-1,1.2-1.4h3.9
	c-0.6,1.9-1.6,3.3-2.9,4.2c-1.3,0.8-2.8,1.3-4.6,1.3c-1.3,0-2.4-0.2-3.4-0.6c-1-0.4-1.8-1-2.6-1.8c-0.7-0.7-1.3-1.6-1.6-2.6
	c-0.4-1-0.6-2.2-0.6-3.4c0-1.2,0.2-2.3,0.6-3.4c0.4-1,1-1.9,1.7-2.7c0.7-0.7,1.6-1.4,2.6-1.8c1-0.4,2.1-0.6,3.4-0.6
	c1.4,0,2.6,0.2,3.6,0.8c1,0.6,1.8,1.2,2.5,2.2c0.6,0.9,1.1,1.9,1.4,3C38,21.6,38,22.7,38,24H26.4C26.4,25.3,26.9,26.5,27.5,27.1z
	 M32.5,18.7c-0.6-0.6-1.4-0.9-2.5-0.9c-0.7,0-1.3,0.2-1.8,0.4c-0.5,0.2-0.8,0.6-1.1,0.9c-0.3,0.3-0.5,0.7-0.6,1.1
	c-0.1,0.4-0.2,0.7-0.2,1h7.2C33.5,20.1,33.1,19.3,32.5,18.7z M25.5,10.3h9v2.2h-9V10.3z"/>
</svg>
