<?xml version="1.0" encoding="utf-8"?>
<!-- Generator: Adobe Illustrator 22.1.0, SVG Export Plug-In . SVG Version: 6.00 Build 0)  -->
<svg version="1.1" id="Layer_1" xmlns="http://www.w3.org/2000/svg" xmlns:xlink="http://www.w3.org/1999/xlink" x="0px" y="0px"
	 viewBox="0 0 70 70" style="enable-background:new 0 0 70 70;" xml:space="preserve">
<style type="text/css">
	.st0{fill:#EE9572;}
</style>
<path id="Fill-2" class="st0" d="M36.3,24c1.8-0.1,3.4-0.6,4.7-1.3c-1.3,0.9-3,1.5-4.8,1.6c0-0.1,0-0.2,0-0.2
	C36.2,24,36.3,24,36.3,24z M28.7,56.5l6.3-2.2v2.2H28.7z M35,50.7l-6.3-2.2H35V50.7z M28.5,53.6l2.3-0.8l3.5,1.2l-5.8,2.1V53.6z
	 M30.1,52.5l-1.6,0.6v-1.1L30.1,52.5z M34.3,51l-3.5,1.2l-2.3-0.8v-2.5L34.3,51z M35,53.7l-3.5-1.2l3.5-1.2V53.7z M34.6,24
	c0,0.1,0,0.2,0,0.2c-1.7-0.2-3.3-0.7-4.6-1.6C31.3,23.4,32.8,23.8,34.6,24z M27.5,17.5c0,0.1,0,0.3,0,0.4c0,0.1,0,0.2,0,0.4
	c0,0.8,0.2,1.5,0.6,2.2c-0.7-0.9-1.1-1.9-1.1-3c0-1.6,0.9-3,2.3-4.1C28.2,14.5,27.5,16,27.5,17.5z M42.9,20.5
	c0.4-0.7,0.6-1.4,0.6-2.2c0-0.1,0-0.2,0-0.4c0-0.1,0-0.3,0-0.4c0-1.5-0.7-3-1.8-4.1c1.4,1.1,2.3,2.5,2.3,4.1
	C44,18.6,43.6,19.6,42.9,20.5z M36.1,19.2c0-1.8,0.5-3.6,1.4-4c0,0,0,0,0.1,0c0.4-0.1,0.5,0.1,0.4,0.4c-0.2,0.3-0.2,0.7,0,1.1
	c0.4,0.8,1.5,0.9,2.1,0c0.1-0.2,0.2-0.5,0.1-0.8c-0.3-1.1-1.6-1.4-2.6-0.8c-1.9,0.9-2.3,2.8-2.5,4.2c0,0.1,0,0.3-0.1,0.5
	c-0.3-0.4-0.6-0.8-1.2-1.1c-0.9-0.5-2-0.1-2.2,0.8c0,0.1,0,0.2,0,0.4c0.4,0.9,1.4,0.8,1.7,0.1c0.2-0.3,0.1-0.7-0.1-1
	c-0.1-0.1,0-0.3,0.2-0.3c0.2,0,0.3,0.1,0.5,0.3c0.5,0.5,0.8,1.9,0.8,3.1c0,0.1,0,0.8,0,1.5c-3.5-0.4-6.3-2.7-6.5-5.5
	c0.3-2.7,3.5-4.9,7.5-4.9c4,0,7.2,2.2,7.5,4.9c-0.2,3-3.2,5.3-6.8,5.6C36.1,22.2,36.1,20.9,36.1,19.2z M35.5,12
	c0.4,0,0.7-0.2,0.8-0.5c3,0.3,5.4,1.9,6.3,4.1c-1.3-1.9-4-3.2-7.1-3.2c-3.1,0-5.8,1.3-7.1,3.2c0.9-2.2,3.3-3.9,6.3-4.1
	C34.8,11.8,35.1,12,35.5,12z M36.5,11c0-0.6-0.4-1-1-1c-0.6,0-1,0.4-1,1c-4.5,0.4-8,3.2-8,6.5c0,3.7,3.5,6.8,8,7.2c0,1,0,1.9,0,2.1
	c0,0.7,0.7,1.4,1.4,1.1l-2.8,1.4l0.2,0.4l0.5-0.2c0.4-0.2,0.8,0.1,0.8,0.5l-0.2,2.2c0,0.3,0.1,0.6,0.4,0.8c-0.1,0.2-0.2,0.4-0.2,0.6
	v1c-0.3,0-0.5,0.2-0.5,0.5c0,0.3,0.2,0.5,0.5,0.5V36c-0.3,0.4-0.5,0.9-0.5,1.5c0,0.7,0.3,1.3,0.6,1.6c-0.1,0.1-0.1,0.2-0.1,0.4
	c0,0.3,0.2,0.5,0.5,0.5v7h-6.5v-0.2h-1.3l0,1.7h0.2v1h-0.2v2h0.3v3h-0.3v1h0.2v1h-0.2v1.8h1.2V58l6,0v1c0,0.6,0.4,1,1,1
	c0.6,0,1-0.4,1-1v-1c0-0.4-0.2-0.7-0.5-0.9V40c0.3,0,0.5-0.2,0.5-0.5c0-0.1-0.1-0.3-0.1-0.4c0.4-0.4,0.6-1,0.6-1.6
	c0-0.6-0.2-1.1-0.5-1.5c0,0,0-0.2,0-0.5c0.3,0,0.5-0.2,0.5-0.5c0-0.3-0.2-0.5-0.5-0.5v-1c0-0.2-0.1-0.4-0.2-0.6
	c0.3-0.1,0.4-0.4,0.4-0.8l-0.3-3.3c0-0.1-0.1-0.2-0.2-0.3c-0.1-0.1-0.1-0.3,0.1-0.4l1.8-0.9l-0.2-0.4l-0.1,0.1
	c-0.5,0.3-1.4-0.2-1.5-1c0-0.4-0.1-0.8-0.1-1.2c4.6-0.3,8.3-3.4,8.3-7.2C44.5,14.2,41,11.4,36.5,11z"/>
</svg>
