<?xml version="1.0" encoding="utf-8"?>
<!-- Generator: Adobe Illustrator 22.1.0, SVG Export Plug-In . SVG Version: 6.00 Build 0)  -->
<svg version="1.1" id="Layer_1" xmlns="http://www.w3.org/2000/svg" xmlns:xlink="http://www.w3.org/1999/xlink" x="0px" y="0px"
	 viewBox="0 0 70 70" style="enable-background:new 0 0 70 70;" xml:space="preserve">
<style type="text/css">
	.st0{fill:#EE9572;}
</style>
<path id="Fill-2" class="st0" d="M39.5,32c0-0.6,0.4-1,1-1s1,0.4,1,1c0,0.6-0.4,1-1,1S39.5,32.6,39.5,32z M42.3,32.8
	c0,0,0-0.1,0-0.1c0-0.1,0.1-0.2,0.1-0.2c0-0.2,0.1-0.3,0.1-0.5c0-0.1,0-0.3,0-0.4c0-0.1,0-0.1,0-0.1c0-0.1,0-0.1-0.1-0.2
	c0-0.1-0.1-0.1-0.1-0.2c0,0,0-0.1-0.1-0.1c0-0.1-0.1-0.1-0.1-0.2c0,0,0-0.1-0.1-0.1c-0.1-0.1-0.1-0.1-0.2-0.2
	c-0.1-0.1-0.2-0.2-0.3-0.2c-0.1-0.1-0.2-0.1-0.3-0.1c-0.1,0-0.2-0.1-0.4-0.1c-0.1,0-0.2,0-0.2,0c-0.7,0-1.3,0.3-1.6,0.8
	c-0.1,0.1-0.1,0.2-0.2,0.3c-0.1,0.1-0.1,0.2-0.1,0.4h-7.1c-0.1-0.2-0.2-0.5-0.4-0.7l3.3-7c-0.5-0.2-0.9-0.8-0.9-1.4
	c0-0.7,0.5-1.3,1.1-1.4l-0.3-1l-0.5,0L33,21.8c-0.6-0.6-1-1.4-1-2.3c0-1.7,1.3-3,3-3s3,1.3,3,3c0,0.9-0.4,1.7-1,2.3l-0.8-1.7l-0.5,0
	l-0.3,1c0.6,0.2,1.1,0.8,1.1,1.4c0,0.6-0.4,1.1-0.9,1.4l3,6.5c0.5-0.5,1.1-0.8,1.8-0.8c0,0-1.1-2.4-3.3-7.3c0.8-0.6,1.3-1.6,1.3-2.7
	c0-1.9-1.6-3.5-3.5-3.5c-1.9,0-3.5,1.6-3.5,3.5c0,1.1,0.5,2.1,1.3,2.7L29.3,30c-0.7,0.1-1.3,0.6-1.6,1.2L24,31v-0.5h-0.5v1h-4.1
	c-0.2-0.3-0.5-0.5-0.9-0.5c-0.6,0-1,0.4-1,1c0,0.6,0.4,1,1,1c0.4,0,0.7-0.2,0.9-0.5h4.1v1H24V33l3.6-0.2c0.1,0.1,0.1,0.3,0.2,0.4
	l-6.6,16.2l-2.3,6.9c0,0.1,0,0.2,0.1,0.2l0,0c0.1,0,0.1,0,0.2-0.1L29.6,34c0.9-0.1,1.6-0.7,1.8-1.5l7.1,0c0.1,0.3,0.2,0.6,0.4,0.8
	c0.1,0.1,0.1,0.2,0.2,0.2c0.3,0.3,0.7,0.4,1.1,0.5c0,0,0.1,0,0.1,0c0.7,0,1.3-0.3,1.7-0.9C42.2,33,42.3,32.9,42.3,32.8z M35,21.5
	c-0.1,0-0.2,0-0.3,0c-0.4,0.1-0.7,0.5-0.7,1c0,0.4,0.2,0.7,0.6,0.9c0.1,0,0.1,0.1,0.2,0.1c0,0,0,0,0,0c0.1,0,0.1,0,0.2,0
	s0.1,0,0.2,0c0,0,0,0,0,0c0.1,0,0.1,0,0.2-0.1c0.3-0.2,0.6-0.5,0.6-0.9c0-0.5-0.3-0.8-0.7-1C35.2,21.5,35.1,21.5,35,21.5z
	 M51.2,44.8l0.5-0.2l-0.4-0.9l-0.2-0.5l-0.4-0.9l-0.5,0.2l0.3,0.7c0.1,0.1,0,0.3-0.1,0.3l-0.2,0.1l-0.1-0.2
	c-0.1-0.1-0.2-0.2-0.3-0.1c-0.1,0.1-0.2,0.2-0.1,0.3l0.1,0.2L49.2,44l-0.7-1.9L46.2,43l0.1,0.3l-3.9-9.7c-0.4,0.5-1.1,0.8-1.8,0.8
	l10.2,21.9c0,0.1,0.1,0.1,0.2,0.1l0,0c0.1,0,0.1-0.1,0.1-0.2l-2.4-6.9l-0.9-2.1l2.3-0.9l-0.7-1.9l0.5-0.2l0.1,0.2
	c0.1,0.1,0.2,0.2,0.3,0.1c0.1-0.1,0.2-0.2,0.1-0.3L50.3,44l0.2-0.1c0.1-0.1,0.3,0,0.3,0.1L51.2,44.8z M36,11L36,11
	c0.1,0,0.2-0.1,0.2-0.2l0,0c0-0.1-0.1-0.2-0.2-0.2l0,0c0-0.3-0.4-0.5-1-0.5s-1,0.2-1,0.5l0,0c-0.1,0-0.2,0.1-0.2,0.2l0,0
	c0,0.1,0.1,0.2,0.2,0.2l0,0v4c0,0.6,0.4,1,1,1s1-0.4,1-1V11z"/>
</svg>
