<svg version="1.1" id="dribble-icon" xmlns="http://www.w3.org/2000/svg" xmlns:xlink="http://www.w3.org/1999/xlink" x="0px"
	 y="0px" viewBox="0 0 40 40" style="enable-background:new 0 0 40 40;" xml:space="preserve">
<path d="M31.3,7.2C28.2,4.6,24.3,3,20,3c-1.3,0-2.5,0.2-3.7,0.4c1.2,1.7,5.3,7.6,6,9.7C25.3,12.2,29.4,9.8,31.3,7.2z M25.3,19.1
	c0,0,7.7-0.6,11.6,0.7c0-3.9-1.4-7.6-3.7-10.5c-0.8,0.9-3.4,3.8-9.3,6.5C24.7,17.5,25.3,19.1,25.3,19.1z M12.9,4.6
	c-4.8,2.2-8.2,6.5-9.4,11.6c2,0,9.3-0.2,15.5-2C17.7,11.8,13.9,6.1,12.9,4.6z M9.6,33.4C12.5,35.6,16.1,37,20,37
	c2.4,0,4.6-0.5,6.6-1.4c-0.3-1.8-1.5-7.6-3.7-12.7C17.7,24.8,13.4,27.4,9.6,33.4z M21.8,19.8c-0.6-1.3-1.4-2.8-1.4-2.8
	S13.9,19.5,3,19.6c0,0.2,0,0.3,0,0.4c0,4.3,1.6,8.2,4.2,11.2C7.7,30.5,12.8,22.5,21.8,19.8z M26.5,22c1.4,3.8,2.7,9.9,3.1,11.9
	c3.7-2.6,6.3-6.5,7.1-11.1C35.5,22.5,31,21.3,26.5,22z"/>
</svg>
