<svg version="1.1" id="Layer_1" xmlns="http://www.w3.org/2000/svg" xmlns:xlink="http://www.w3.org/1999/xlink" x="0px" y="0px"
	 viewBox="0 0 40 40" style="enable-background:new 0 0 40 40;" xml:space="preserve">
	<path fill="#1C1E21" d="M13.4,4.1C15.1,4,15.7,4,20,4s4.9,0,6.6,0.1s2.9,0.3,3.9,0.7c1,0.4,1.9,1,2.8,1.8
		c0.9,0.9,1.4,1.8,1.8,2.8c0.4,1,0.6,2.2,0.7,3.9C36,15.1,36,15.7,36,20s0,4.9-0.1,6.6s-0.3,2.9-0.7,3.9c-0.4,1-1,1.9-1.8,2.8
		c-0.9,0.9-1.8,1.4-2.8,1.8c-1,0.4-2.2,0.6-3.9,0.7C24.9,36,24.3,36,20,36s-4.9,0-6.6-0.1s-2.9-0.3-3.9-0.7c-1-0.4-1.9-1-2.8-1.8
		s-1.4-1.8-1.8-2.8c-0.4-1-0.6-2.2-0.7-3.9C4,24.9,4,24.3,4,20s0-4.9,0.1-6.6s0.3-2.9,0.7-3.9c0.4-1,1-1.9,1.8-2.8
		c1-1,1.8-1.4,2.9-1.9C10.6,4.5,11.7,4.2,13.4,4.1z M20,11.8c-4.6,0-8.2,3.7-8.2,8.2s3.7,8.2,8.2,8.2s8.2-3.7,8.2-8.2
		S24.6,11.8,20,11.8z M20,25.4c-3,0-5.4-2.4-5.4-5.4s2.4-5.4,5.4-5.4s5.4,2.4,5.4,5.4S23,25.4,20,25.4z M30.5,11.4
		c0-1-0.9-1.9-1.9-1.9s-1.9,0.9-1.9,1.9s0.9,1.9,1.9,1.9C29.6,13.4,30.5,12.5,30.5,11.4z"/>
</svg>
