<?xml version="1.0" encoding="utf-8"?>
<!-- Generator: Adobe Illustrator 22.1.0, SVG Export Plug-In . SVG Version: 6.00 Build 0)  -->
<svg version="1.1" id="Layer_1" xmlns="http://www.w3.org/2000/svg" xmlns:xlink="http://www.w3.org/1999/xlink" x="0px" y="0px"
	 viewBox="0 0 70 70" style="enable-background:new 0 0 70 70;" xml:space="preserve">
<style type="text/css">
	.st0{opacity:0.4;fill:none;stroke:#EE9572;stroke-dasharray:2,2;}
	.st1{fill:#EE9572;}
</style>
<g id="logo" transform="translate(13.000000, 10.500000)">
	<path id="Path-2" class="st0" d="M26.3,32.6h18.2"/>
	<path id="Path-2_1_" class="st0" d="M21.6,30.2l1.4-0.8l-0.7-13"/>
	<g>
		<path id="Path-2_7_" class="st0" d="M17.7,38.4l8.6-4.6"/>
		<path id="Path-2_2_" class="st0" d="M17.7,40.4l8.6-4.6"/>
		<path id="Path-2_3_" class="st0" d="M17.7,42.4l10.6-5.6"/>
		<path id="Path-2_4_" class="st0" d="M17.7,44.4l11.6-6.1"/>
		<path id="Path-2_5_" class="st0" d="M21.2,44.6l8.5-4.5"/>
		<path id="Path-2_6_" class="st0" d="M21.2,46.6l8.5-4.5"/>
	</g>
	<path id="Fill-1-Copy" class="st1" d="M22,47.7c-0.6-0.3-1.3-0.5-2-0.6c-0.2,0-0.5-0.1-0.7-0.1c-3.4-0.6-5.9-2.5-5.9-5
		c0-0.1,0-0.3,0-0.4v-0.1c0-0.1,0-0.2,0.1-0.4c0-0.1,0-0.1,0-0.2c0-0.1,0.1-0.3,0.1-0.4v-0.1c0.1-0.2,0.1-0.4,0.2-0.6l0,0
		c0.2-0.5,0.4-1.1,0.6-1.6c0.1-0.2,0.2-0.5,0.3-0.7c0-0.1,0-0.2,0-0.3c0-0.3-0.1-0.6-0.3-0.9c0,0,0-0.1,0.1-0.1l0,0
		c0.2,0.1,0.5,0.1,0.7,0.1c0,0,0,0,0.1,0c0.9,0,1.8-0.5,2.2-2.8c0-0.2,0-0.4,0.1-0.6H-0.3c-0.1,0-0.2-0.1-0.2-0.2
		c0-0.1,0.1-0.2,0.2-0.2h18c0-1.5-0.5-2.2-0.9-2.4C16.7,30,16.5,30,16.4,30c-0.2,0-0.3,0-0.5,0.1l0,0c0,0-0.1,0-0.1-0.1
		c0.2-0.3,0.3-0.7,0.3-1.1c0-0.1,0-0.3,0-0.4c-0.1-0.2-0.1-0.4-0.2-0.6c-0.3-1-0.5-2-0.5-2.7c0-2.1,1.2-4.5,5.5-4.9l0.2-3.5
		c0-0.4-0.4-0.7-0.7-0.5l-0.5,0.2l-0.2-0.4L22,15V47.7z M22,14.9c-0.5,0-1-0.6-1-1.1v-2.7c0-0.9,0.1-3.7,0.1-4.1
		c0-1.2-0.3-2.5-0.8-3c-0.2-0.2-0.3-0.3-0.5-0.3c-0.1,0-0.2,0.1-0.1,0.3c0.2,0.3,0.3,0.6,0.1,0.9c-0.3,0.6-1.3,0.7-1.7-0.1
		c0-0.1-0.1-0.2,0-0.3c0.2-0.9,1.3-1.2,2.2-0.8c0.6,0.3,0.9,0.7,1.1,1.1c0-0.2,0-0.3,0.1-0.5c0.1-0.6,0.2-1.4,0.5-2.1
		C22,2.2,22,14.9,22,14.9z M14.9,38.3c-0.2,0.4-0.3,0.8-0.4,1.1l7.3-3.8v-5L20.7,30c-0.3-0.1-0.4-0.4-0.4-0.7l0.5-8.5
		c-4.3,0.4-5,2.9-5,4.4c0,0.7,0.2,1.6,0.5,2.6c0.1,0.2,0.1,0.4,0.2,0.6l0,0l0,0c0,0.2,0,0.3,0,0.5s0,0.4-0.1,0.6
		c0.2,0,0.3,0,0.5,0.1c0.6,0.2,1.4,1.3,1.1,3.9c-0.3,2.1-1.1,3.1-2.6,3.2c0,0,0,0-0.1,0h-0.1c0,0.1,0,0.3,0,0.4c0,0.1,0,0.3,0,0.4
		v0.1v0.1C15.1,37.8,15,38,14.9,38.3z"/>
	<path class="st1" d="M25.3,1.1c0.1,0.1,0.1,0.1,0.2,0.2c0,0.1-0.1,0.1-0.1,0.1s-0.1,0-0.1-0.1V1.2C25.2,1.2,25.3,1.2,25.3,1.1
		 M22,13.7c0,0.1,0.1,0.1,0.1,0.2c0,0,0,0-0.1,0V13.7L22,13.7 M21.9,16.2L21.9,16.2L21.9,16.2L21.9,16.2 M22,17.4l0.2,3
		c0,0.5,0.4,0.9,0.9,0.9c3.8,0.3,4.5,2.3,4.5,3.9c0,0.6-0.2,1.5-0.5,2.4C27,27.8,27,28,26.9,28.1c0,0.1,0,0.1,0,0.2
		c0,0.2-0.1,0.4-0.1,0.6c0,0.1,0,0.1,0,0.2l0,0c-0.7,0.3-1.5,1.3-1.5,3.4V33c0,0.2,0,0.4,0.1,0.7c0.3,2.2,1.2,3.4,2.8,3.6
		c0,0.1,0,0.3,0,0.4c0,0.1,0,0.2,0.1,0.2c0.1,0.2,0.2,0.4,0.3,0.7c0.6,1.4,0.9,2.7,0.9,3.5c0,1.9-2,3.4-5.1,4
		c-0.2,0-0.4,0.1-0.6,0.1c-0.6,0.1-1.2,0.3-1.8,0.5c-0.6-0.2-1.2-0.4-1.8-0.5c-0.2,0-0.4-0.1-0.6-0.1c-3.1-0.6-5.1-2.2-5.1-4
		c0-0.1,0-0.2,0-0.4v-0.1c0-0.1,0-0.2,0-0.3v-0.1c0-0.1,0.1-0.2,0.1-0.4v-0.1c0-0.2,0.1-0.4,0.2-0.6c0.2-0.5,0.3-1,0.6-1.5
		c0.1-0.2,0.2-0.4,0.3-0.7c0-0.1,0.1-0.2,0.1-0.2c0-0.1,0-0.3,0-0.4c1.5-0.2,2.4-1.4,2.8-3.6c0-0.2,0.1-0.5,0.1-0.7v-0.5
		c0-2-0.8-3-1.5-3.3l0,0c0-0.1,0-0.1,0-0.2c0-0.2,0-0.4-0.1-0.6c0-0.1,0-0.1,0-0.2C17,28,17,27.8,16.9,27.7
		c-0.3-0.9-0.5-1.8-0.5-2.4c0-1.6,0.8-3.5,4.5-3.9c0.5,0,0.9-0.4,0.9-0.9L22,17.4 M24.9,0c-0.3,0-0.7,0.1-1,0.2
		c-1.9,1-2.2,2.8-2.4,4.1c0,0.1,0,0.3-0.1,0.5c-0.3-0.4-0.6-0.8-1.1-1.1c-0.3-0.1-0.6-0.2-0.8-0.2c-0.6,0-1.2,0.3-1.3,1
		c0,0.1,0,0.2,0,0.3c0.2,0.4,0.5,0.6,0.9,0.6c0.3,0,0.6-0.2,0.8-0.5c0.1-0.3,0-0.7-0.2-0.9c-0.1-0.1,0-0.3,0.1-0.3l0,0
		c0.2,0,0.3,0.1,0.5,0.3c0.5,0.5,0.8,1.9,0.8,3c0,0.4-0.1,3.2-0.1,4.1v2.7c0,0.6,0.4,1.1,1,1.1c0.1,0,0.2,0,0.4-0.1l-2.7,1.4
		l0.2,0.4l0.5-0.2c0.1,0,0.2-0.1,0.2-0.1c0.3,0,0.5,0.2,0.5,0.5l-0.2,3.5c-4.2,0.4-5.5,2.7-5.5,4.9c0,0.7,0.2,1.7,0.5,2.7
		c0.1,0.2,0.1,0.4,0.2,0.6c0,0.1,0,0.2,0,0.4c0,0.4-0.1,0.8-0.3,1.1c0,0,0,0.1,0.1,0.1l0,0C16,30,16.2,30,16.4,30s0.3,0,0.4,0.1
		c0.3,0.1,0.9,0.8,0.9,2.4v0.4c0,0.2,0,0.4-0.1,0.6c-0.3,2.3-1.2,2.8-2.2,2.8c0,0,0,0-0.1,0c-0.3,0-0.5,0-0.7-0.1l0,0
		c0,0-0.1,0-0.1,0.1c0.2,0.3,0.3,0.6,0.3,0.9c0,0.1,0,0.2,0,0.3c-0.1,0.2-0.2,0.5-0.3,0.7c-0.2,0.6-0.4,1.1-0.6,1.6
		c-0.1,0.2-0.1,0.4-0.2,0.6v0.1c0,0.1-0.1,0.3-0.1,0.4c0,0.1,0,0.1,0,0.2c0,0.1,0,0.2-0.1,0.4v0.1c0,0.2,0,0.3,0,0.4
		c0,2.5,2.5,4.4,5.9,5c0.2,0,0.4,0.1,0.7,0.1c0.7,0.1,1.4,0.3,2,0.6c0.6-0.3,1.3-0.5,2-0.6c0.2,0,0.5-0.1,0.7-0.1
		c3.4-0.6,5.9-2.5,5.9-5c0-1-0.4-2.4-1-3.9c-0.1-0.2-0.2-0.5-0.3-0.7c0-0.1,0-0.2,0-0.3c0-0.3,0.1-0.6,0.3-0.9c0,0,0,0,0-0.1l0,0
		l0,0l0,0l0,0l0,0c-0.2,0.1-0.5,0.1-0.7,0.1c0,0,0,0-0.1,0c-0.9,0-1.8-0.5-2.2-2.8l0,0c0-0.2,0-0.4-0.1-0.6v-0.4
		c0-1.5,0.5-2.2,0.9-2.4c0.1-0.1,0.3-0.1,0.4-0.1c0.2,0,0.3,0,0.5,0.1l0,0c0,0,0.1,0,0.1-0.1c-0.2-0.3-0.3-0.7-0.3-1.1
		c0-0.1,0-0.3,0-0.4c0.1-0.2,0.1-0.4,0.2-0.6c0.3-1,0.5-2,0.5-2.7c0-2.1-1.2-4.5-5.5-4.9l-0.3-4.5c0-0.1-0.1-0.2-0.2-0.3
		S22.8,15.1,23,15l1.8-0.9l-0.2-0.3l-0.1,0.1c-0.4,0-0.5,0.1-0.6,0.1c-0.5,0-1-0.4-1.1-1.1c-0.2-2-0.3-5.8-0.2-8.5
		c0-1.7,0.5-3.5,1.3-3.9c0,0,0,0,0.1,0s0.1,0,0.2,0c0.2,0,0.3,0.2,0.2,0.4l0,0c-0.2,0.3-0.2,0.7-0.1,1.1c0.2,0.4,0.6,0.6,1,0.6
		s0.8-0.2,1-0.6c0.1-0.2,0.2-0.5,0.1-0.8C26.2,0.4,25.6,0,24.9,0L24.9,0z"/>
</g>
</svg>
