<?xml version="1.0" encoding="utf-8"?>
<!-- Generator: Adobe Illustrator 22.1.0, SVG Export Plug-In . SVG Version: 6.00 Build 0)  -->
<svg version="1.1" id="logo" xmlns="http://www.w3.org/2000/svg" xmlns:xlink="http://www.w3.org/1999/xlink" x="0px" y="0px"
	 viewBox="0 0 100 175" style="enable-background:new 0 0 100 175;" xml:space="preserve">
<style type="text/css">
	.st0{fill:#EE9572;}
	.st1{fill:#EE9572;stroke:#EE9572;stroke-width:0.25;stroke-miterlimit:10;}
	.st2{fill:#735245;}
</style>
<g id="sign">
	<path id="path-1_1_" class="st0" d="M34.2,85c0.2-0.5,0.5-1,0.7-1.5l0.1-0.1v-0.1c0.1-0.3,0.1-0.6,0.1-0.9s0-0.6-0.1-0.9
		c0.1,0,0.2,0,0.3,0s0.1,0,0.2,0c3.3-0.1,5.1-2.3,5.8-7c0.8-5.9-1.1-8.2-2.4-8.7c-0.3-0.1-0.7-0.2-1-0.2c0.1-0.5,0.2-0.9,0.2-1.4
		c0-0.3,0-0.7-0.1-1v-0.1V63c-0.2-0.4-0.3-0.8-0.5-1.2c-0.7-2.2-1.2-4.2-1.2-5.8c0-3.4,1.5-8.9,11.1-9.8L46.2,65
		c0,0.7,0.3,1.3,0.9,1.7l2.5,1.2V79l-16.3,8.5C33.5,86.7,33.8,85.9,34.2,85 M63.8,55.9c0,1.5-0.4,3.6-1.2,5.8
		c-0.1,0.4-0.3,0.8-0.5,1.2V63v0.1c-0.1,0.3-0.1,0.7-0.1,1c0,0.5,0.1,1,0.2,1.4c-0.4,0-0.7,0.1-1,0.2c-1.3,0.5-3.1,2.8-2.4,8.3
		l-8.3,4.3V67.8l2.5-1.2c0.6-0.3,1-1,0.9-1.7l-1.2-18.8C62.2,47,63.8,52.5,63.8,55.9 M99.5,72H59.6c0-3.4,1.2-5,1.9-5.3
		c0.3-0.1,0.6-0.2,1-0.2s0.7,0.1,1.1,0.2c0,0,0,0,0.1,0s0.2-0.1,0.1-0.2C63.3,65.8,63,65,63,64.1c0-0.3,0-0.6,0.1-0.8
		c0.2-0.4,0.3-0.9,0.5-1.3c0.8-2.3,1.2-4.4,1.2-6.1c0-4.8-2.7-10-12.1-10.8L52,35c-0.1-0.3-0.2-0.5-0.4-0.7
		c-0.3-0.2-0.2-0.7,0.1-0.9l3.9-2l-0.4-0.8L55,30.8c-1.2,0.6-3-0.4-3.2-2.3c-0.5-4.5-0.6-12.9-0.5-19c0.1-3.9,1.2-7.8,2.9-8.7h0.1
		c0.8-0.3,1.2,0.2,0.9,0.8l0,0c-0.4,0.7-0.5,1.6-0.1,2.4c0.9,1.7,3.3,2,4.5,0c0.3-0.5,0.4-1.2,0.2-1.7c-0.7-2.3-3.4-2.9-5.7-1.8
		c-4.1,2-4.9,6-5.4,9c0,0.3-0.1,0.7-0.1,1c-0.6-1-1.3-1.8-2.5-2.5c-2-1-4.4-0.3-4.8,1.7c-0.1,0.3,0,0.5,0.1,0.8
		c0.8,1.9,3,1.7,3.7,0.3c0.4-0.7,0.2-1.5-0.2-2.1c-0.2-0.3,0-0.6,0.3-0.6s0.7,0.2,1.1,0.6C47.4,10,48,13,48,15.6c0,0.8-0.1,7-0.2,9
		v6c0,1.5,1.5,3.1,3,2.3l-6,3.1l0.3,0.8l1.1-0.5c0.8-0.4,1.7,0.2,1.7,1.1l-0.5,7.7c-9.4,0.8-12.1,6.1-12.1,10.8
		c0,1.6,0.4,3.8,1.2,6.1c0.1,0.4,0.3,0.8,0.5,1.3c0.1,0.3,0.1,0.5,0.1,0.8c0,0.9-0.3,1.7-0.7,2.4c-0.1,0.1,0,0.2,0.1,0.2
		c0,0,0,0,0.1,0c0.3-0.1,0.7-0.2,1.1-0.2c0.3,0,0.7,0.1,1,0.2c0.8,0.3,2,1.8,1.9,5.3H0.5C0.2,72,0,72.2,0,72.5S0.2,73,0.5,73h39.9
		c0,0.4-0.1,0.9-0.1,1.3c-0.7,5.1-2.8,6.1-4.8,6.2h-0.1c-0.6,0-1.1-0.1-1.6-0.3c0,0,0,0-0.1,0s-0.2,0.1-0.1,0.2
		c0.4,0.6,0.6,1.3,0.6,2c0,0.2,0,0.5-0.1,0.7c-0.2,0.5-0.5,1-0.7,1.5c-0.5,1.2-1,2.4-1.3,3.6l0,0c-0.1,0.5-0.3,0.9-0.4,1.3
		c0,0.1,0,0.2-0.1,0.3c-0.1,0.3-0.1,0.6-0.2,0.9c0,0.1,0,0.2-0.1,0.4c0,0.3-0.1,0.5-0.1,0.8c0,0.1,0,0.2,0,0.3c0,0.3-0.1,0.7-0.1,1
		c0,5.5,5.5,9.7,13.2,11.1c0.5,0.1,1,0.2,1.5,0.2c1.5,0.2,3,0.7,4.3,1.4c1.3-0.7,2.9-1.2,4.3-1.4c0.5-0.1,1-0.2,1.5-0.2
		c7.6-1.4,13.2-5.6,13.2-11.1c0-2.1-0.8-5.3-2.3-8.6c-0.2-0.5-0.5-1-0.7-1.5c0-0.2-0.1-0.4-0.1-0.7c0-0.7,0.2-1.4,0.6-2v-0.1l0,0
		l-0.1-0.1l0,0c0,0,0,0-0.1,0l0,0c-0.5,0.2-1,0.3-1.6,0.3h-0.1c-2.1-0.1-4.1-1.1-4.8-6.2c0,0,0,0,0-0.1c-0.1-0.5-0.1-0.9-0.1-1.3
		h39.8c0.3,0,0.5-0.2,0.5-0.5C100,72.2,99.8,72,99.5,72"/>
</g>
<g id="typo" transform="translate(3.000000, 111.000000)">
	<path class="st1" d="M84.2,30.1c-0.4-3.6-5.8-7.7-10-7.8c0,0-0.1,0-0.1,0.1l0.1,0.7c0,0,0,0.1,0.1,0.1c4,0.1,9.2,3.6,9.7,7
		c0.1,0.8-0.1,1.5-0.6,2c-0.4,0.4-0.9,0.6-1.5,0.6c-1.2,0-2.7-0.9-3.9-2c-2-1.8-4.2-5.2-4.4-8c0,0,0,0,0,0c0,0,0,0,0-0.1
		c0-0.1,0-0.2,0-0.4c0-1,0.1-2.2,0.5-3.5c0,0,0-0.1,0.1-0.1c3.8-0.1,10.5-2,10-5.7c-0.2-1.5-1.8-2.7-4.3-2.7c-5,0-10,5.7-9.5,10.4
		c0,0,0,0,0,0c-0.6,1.2-1.6,2.4-2.8,3.1c-0.9,0.5-1.7,0.3-1.1-1.3L72,6.9c0.2-0.6,0.3-1.2,0.2-1.7c-0.2-1.3-1.1-2.1-2.6-2.1
		c-1.1,0-2.1,0.5-2.9,1.2l0.2,0.3c0.6-0.6,1.4-0.9,1.7-0.9c0.3,0,0.5,0.2,0.5,0.6c0.1,0.4-0.1,1-0.3,1.4l-5.2,14.8c0,0,0,0,0,0
		c-0.7,1.2-2.5,2.9-3.7,3.5c-0.8,0.5-1.6,0.3-1.1-1.3l6.3-17.9c0.2-0.6,0.3-1.2,0.2-1.7c-0.2-1.3-1.1-2.1-2.6-2.1
		c-1.1,0-2.1,0.5-2.9,1.2L60,2.1c0.6-0.6,1.4-0.9,1.7-0.9s0.5,0.2,0.5,0.6c0.1,0.4-0.1,1-0.3,1.4L58.9,12c0,0.1-0.1,0.1-0.2,0
		c-0.2-1-1.1-1.7-2.2-1.7c-2.7,0-5.4,1.7-7.2,3.9L47.1,17l0,2.7c0,0,0,0.1,0,0.1l0,0.1l0,0c0,0.2,0,0.5,0,0.7c0,0.1,0,0.2,0,0.2
		c-0.6,1.1-1.5,2.2-2.7,2.8c-0.8,0.5-1.6,0.3-1.1-1.3L49,6.3c0.2-0.6,0.3-1.2,0.2-1.7c-0.2-1.3-1.1-2.1-2.6-2.1
		c-1.1,0-2.1,0.5-2.9,1.2l0.2,0.3c0.6-0.6,1.4-0.9,1.7-0.9s0.5,0.2,0.5,0.6c0.1,0.4-0.1,1-0.3,1.4L43.4,12c0,0.1-0.1,0.1-0.2,0
		c-0.2-1-1.1-1.7-2.2-1.7c-4.9,0-10,5.7-9.4,10.4c0,0,0,0,0,0c-0.6,1.2-1.6,2.5-2.8,3.1c-0.9,0.5-1.7,0.3-1.1-1.3l2.9-8.4
		c0.2-0.6,0.3-1.2,0.2-1.8c-0.2-1.2-1.1-2.1-2.6-2.1c0,0-0.1,0-0.1,0l-4.8,0c-0.1,0-0.1-0.1-0.1-0.1c0.9-2.6,1.5-4.5,2.5-6.4
		c0.8-1.5,1.3-1.8,2.4-1.8c0.5,0,0.9,0.1,1.3,0.2c0.4,0.1,0.4,0.6,0.1,0.8c-1.2,0.6-1.4,1.8-1.1,2.8c0.3,1,1.4,1.6,2.8,1.4
		C32.3,7,33.1,6,33,4.9c-0.2-1.5-2-3.3-4.8-3.4c-4.6,0-8.6,3.6-7,8.1c0.1,0.3-0.1,0.6-0.4,0.6l-5.3,0c0,0-0.1,0-0.1,0.1l0,0.2
		c0,0,0,0,0,0l0.1,0.4c0,0,1-0.3,1.7-0.3c0.1,0,0.1,0,0.1,0c1.4,0,2.4,1.1,1.6,3.9c-1.8,5.2-4.1,12.8-7.5,16.8
		c-1.5,1.8-3.6,3.2-5.7,3.2c-0.9,0-1.8-0.3-2.6-0.9c-1-0.8-1.6-2-1.8-3.3c-0.7-5.6,6.3-11.9,12.9-11.9c0,0,0.1,0,0.1-0.1l-0.1-0.7
		c0,0,0-0.1-0.1-0.1c-6.8,0-14,6.9-13.3,12.7c0.4,3.1,2.9,5,6,5c5.9,0,10-5.6,12.3-11.7c0.8-2,1.9-5.3,3.2-8.8c0,0,0,0,0,0
		c0.8-2.6-0.7-4.1-2.4-4.1l5.8,0c0,0,0,0,0,0c0,0,0.9,0,1.1,0c0.4,0,0.7,0.3,0.7,0.7c0.1,0.4-0.1,1-0.3,1.4l-3.1,6.6l0,3
		c0,1.4,0.9,2.4,2.5,2.4c1.4,0,3.3-0.8,4.7-3.3c0-0.1,0.1-0.1,0.1,0c0.5,2.1,2.3,3.3,4.2,3.3c1.6,0,3-1.1,4-2.6c0-0.1,0.1,0,0.1,0
		c0,1.5,0.9,2.5,2.5,2.5c1.3,0,3.2-0.8,4.6-3c0-0.1,0.1,0,0.1,0c0.6,1.9,2.3,3,4.1,3c1.6,0,3-1.1,4-2.6c0-0.1,0.1,0,0.1,0
		c0,1.5,0.9,2.5,2.5,2.5c0.5,0,1.2-0.1,2-0.5c1-0.5,2.1-1.4,3-2.5c0-0.1,0.1,0,0.1,0.1c-0.2,1.6,0.6,2.9,2.5,2.9
		c1.4,0,3.3-0.8,4.6-3.2c0-0.1,0.1,0,0.1,0c0.3,2.5,1.6,4.5,1.6,4.5c2.4,3.7,5.7,7.1,9.3,7.1C83.3,33.2,84.5,32,84.2,30.1z
		 M74.2,18.2c1.1-3.7,3.4-7.7,5.5-7.7c0.9,0,1.3,0.8,1.4,1.5c0.4,3-2.9,6.1-6.8,6.2C74.2,18.3,74.2,18.3,74.2,18.2z M42.9,13.5
		c-2.5,7.4-2.2,6.3-2.5,7.1c0,0,0,0,0,0c-1,2.4-3.1,3.7-4.3,3.7c-0.7,0-1.1-0.6-1.3-1.6c-0.3-2.1,0.8-6,2.4-8.8
		c1.2-2,2.6-3.4,3.9-3.4C42.6,10.6,43.4,12,42.9,13.5z M58.4,13.5c-2.5,7.4-2.2,6.3-2.5,7.1c0,0,0,0,0,0c-1,2.4-3.1,3.7-4.3,3.7
		c-0.7,0-1.1-0.6-1.3-1.6c-0.3-2.1,0.8-6,2.4-8.8c1.2-2,2.6-3.4,3.9-3.4C58.1,10.6,58.9,12,58.4,13.5z"/>
</g>
<g id="harmony" transform="translate(21.000000, 138.000000)">
	<path id="Harmony" class="st2" d="M10.1,12H8.7V8.2H4.8V12H3.4V3.5h1.5V7h3.8V3.5h1.5L10.1,12L10.1,12z M15.5,12
		c-0.1-0.1-0.1-0.3-0.2-0.6c-0.5,0.5-1,0.7-1.7,0.7c-0.6,0-1.2-0.2-1.6-0.5s-0.6-0.8-0.6-1.3c0-0.7,0.3-1.2,0.8-1.6s1.2-0.5,2.2-0.5
		h0.9V7.7c0-0.3-0.1-0.6-0.3-0.8s-0.5-0.3-0.8-0.3s-0.6,0.1-0.8,0.2s-0.3,0.4-0.3,0.6h-1.4c0-0.3,0.1-0.7,0.3-1s0.6-0.4,1-0.6
		s0.8-0.3,1.3-0.3c0.7,0,1.3,0.2,1.8,0.6c0.5,0.4,0.7,0.9,0.7,1.6v2.9c0,0.6,0.1,1,0.2,1.4l0,0C17,12,15.5,12,15.5,12z M14,11
		c0.3,0,0.5-0.1,0.8-0.2s0.4-0.3,0.6-0.6V9h-0.8c-0.5,0-0.9,0.1-1.2,0.3S13,9.7,13,10.1c0,0.3,0.1,0.5,0.3,0.7S13.7,11,14,11z
		 M21.6,7c-0.2,0-0.4,0-0.6,0c-0.7,0-1.1,0.2-1.3,0.8V12h-1.4V5.7h1.4v0.7c0.3-0.6,0.8-0.8,1.4-0.8c0.2,0,0.4,0,0.5,0.1V7z
		 M23.8,5.7v0.7c0.4-0.5,1.1-0.8,1.8-0.8c0.8,0,1.4,0.3,1.7,1c0.5-0.6,1.1-1,1.9-1c0.7,0,1.2,0.2,1.6,0.6s0.5,1,0.5,1.7V12H30V7.9
		c0-0.4-0.1-0.7-0.3-0.9s-0.5-0.3-0.9-0.3c-0.3,0-0.6,0.1-0.8,0.3s-0.3,0.4-0.4,0.7V12h-1.4V7.8c0-0.7-0.4-1.1-1.1-1.1
		c-0.6,0-1,0.2-1.2,0.7V12h-1.4V5.7H23.8z M32.6,8.8c0-0.6,0.1-1.2,0.4-1.7s0.6-0.9,1-1.1s1-0.4,1.5-0.4c0.9,0,1.5,0.3,2.1,0.8
		s0.8,1.3,0.9,2.2v0.3c0,0.6-0.1,1.2-0.4,1.7s-0.6,0.9-1,1.1s-1,0.4-1.5,0.4c-0.9,0-1.6-0.3-2.1-0.9S32.6,9.8,32.6,8.8L32.6,8.8z
		 M34.1,8.9c0,0.7,0.1,1.2,0.4,1.5s0.6,0.6,1.1,0.6s0.9-0.2,1.1-0.6s0.4-0.9,0.4-1.6c0-0.6-0.1-1.1-0.4-1.5S36,6.7,35.6,6.7
		c-0.5,0-0.8,0.2-1.1,0.6S34.1,8.2,34.1,8.9z M41,5.7v0.7c0.5-0.6,1.1-0.8,1.8-0.8c1.3,0,2,0.8,2,2.3V12h-1.4V7.9
		c0-0.4-0.1-0.7-0.3-0.9s-0.5-0.3-0.9-0.3c-0.6,0-1,0.3-1.3,0.8V12h-1.4V5.7H41z M48.6,10l1.3-4.3h1.5L48.9,13c-0.4,1.1-1,1.6-2,1.6
		c-0.2,0-0.4,0-0.7-0.1v-1.1h0.3c0.4,0,0.6-0.1,0.8-0.2s0.3-0.4,0.4-0.7L48,12l-2.2-6.3h1.5L48.6,10z"/>
	<g id="in-the" transform="translate(0.000000, 14.000000)">
		<path id="in" class="st2" d="M2.1,8H0.8V3.2h1.3V8z M0.8,2c0-0.2,0.1-0.3,0.2-0.5s0.3-0.2,0.5-0.2S1.9,1.4,2,1.5
			C2.1,1.6,2.2,1.8,2.2,2S2.1,2.4,2,2.5S1.7,2.7,1.5,2.7S1.1,2.6,1,2.5S0.8,2.2,0.8,2z M4.3,3.2v0.5c0.3-0.4,0.8-0.6,1.4-0.6
			c0.5,0,0.9,0.1,1.1,0.4s0.4,0.7,0.4,1.3V8H6V5c0-0.3-0.1-0.5-0.2-0.6S5.5,4.2,5.2,4.2c-0.4,0-0.6,0.2-0.8,0.5V8H3.1V3.2H4.3z"/>
		<g id="the-copy" transform="translate(6.000000, 0.000000)">
			<path id="Path" class="st2" d="M7.2,1.9c-0.8-0.2-1.6-0.2-2.4,0v8.3L3.4,11c0-4.5,0-7.5,0-9c-1.1,0-2-0.2-2.7-0.7l0.4-1
				c0.7,0.4,1.4,0.6,2.3,0.6c1.3,0,2.3-0.4,3.8-0.1C8.2,1,9,1.4,9.7,2L9.3,3C8.7,2.4,8,2,7.2,1.9z"/>
			<path id="Path_1_" class="st2" d="M7.6,5.1C8,4.7,8.4,4.5,8.9,4.5c1,0,1.6,0.6,1.6,1.8V9L9.2,9.1V6.4c0-0.3-0.1-0.5-0.2-0.6
				C8.9,5.6,8.7,5.6,8.4,5.6C8.1,5.6,7.8,5.7,7.6,6v3.3L6.4,9.6c0-1.9,0-3.3,0-4.3S6.2,3.5,5.9,2.6l1.2-0.2C7.5,3.2,7.6,4.1,7.6,5.1
				z"/>
			<path id="The" class="st2" d="M13.6,9.1c-0.7,0-1.3-0.2-1.7-0.6c-0.4-0.4-0.7-1-0.7-1.7V6.6c0-0.5,0.1-0.9,0.3-1.3
				c0.2-0.4,0.4-0.7,0.8-0.9c0.3-0.2,0.7-0.3,1.2-0.3c0.7,0,1.2,0.2,1.5,0.6c0.4,0.4,0.6,1,0.6,1.7V7h-3c0,0.3,0.2,0.6,0.4,0.7
				C13.1,7.9,13.4,8,13.7,8c0.5,0,0.9-0.2,1.1-0.5l0.6,0.7c-0.2,0.3-0.4,0.5-0.8,0.6C14.4,9,14,9.1,13.6,9.1z M13.5,5.2
				c-0.3,0-0.5,0.1-0.6,0.3c-0.2,0.2-0.3,0.4-0.3,0.7h1.8V6c0-0.3-0.1-0.5-0.2-0.7C13.9,5.2,13.7,5.2,13.5,5.2z"/>
		</g>
	</g>
	<path id="Making" class="st2" d="M17.9,25.5l2.5,6.5l2.5-6.5h1.9V34h-1.5v-2.8l0.1-3.8L20.9,34h-1.1l-2.5-6.6l0.1,3.8V34H16v-8.5
		H17.9z M30.1,34c-0.1-0.1-0.1-0.3-0.2-0.6c-0.5,0.5-1,0.7-1.7,0.7c-0.6,0-1.2-0.2-1.6-0.5S26,32.8,26,32.3c0-0.7,0.3-1.2,0.8-1.6
		s1.2-0.5,2.2-0.5h0.9v-0.4c0-0.3-0.1-0.6-0.3-0.8c-0.2-0.2-0.5-0.3-0.8-0.3s-0.6,0.1-0.8,0.2s-0.3,0.4-0.3,0.6h-1.4
		c0-0.3,0.1-0.7,0.3-1s0.5-0.5,0.9-0.7s0.8-0.3,1.3-0.3c0.7,0,1.3,0.2,1.8,0.6s0.7,0.9,0.7,1.6v2.9c0,0.6,0.1,1,0.2,1.4l0,0
		C31.5,34,30.1,34,30.1,34z M28.6,33c0.3,0,0.5-0.1,0.8-0.2s0.4-0.3,0.6-0.6V31h-0.8c-0.5,0-0.9,0.1-1.2,0.3s-0.4,0.4-0.4,0.8
		c0,0.3,0.1,0.5,0.3,0.7S28.3,33,28.6,33z M34.9,31.3L34.3,32v2h-1.4v-9h1.4v5.2l0.4-0.6l1.8-2h1.7l-2.4,2.6l2.6,3.7h-1.6L34.9,31.3
		z M40.6,34h-1.4v-6.3h1.4V34z M39.1,26c0-0.2,0.1-0.4,0.2-0.5s0.3-0.2,0.6-0.2s0.5,0.1,0.6,0.2s0.2,0.3,0.2,0.5s-0.1,0.4-0.2,0.5
		s-0.3,0.2-0.6,0.2s-0.5-0.1-0.6-0.2S39.1,26.2,39.1,26z M43.5,27.7v0.7c0.5-0.6,1.1-0.8,1.8-0.8c1.3,0,2,0.8,2,2.3V34H46v-4.1
		c0-0.4-0.1-0.7-0.3-0.9s-0.5-0.3-0.9-0.3c-0.6,0-1,0.3-1.3,0.8V34h-1.4v-6.3H43.5z M48.6,30.8c0-1,0.2-1.8,0.7-2.4s1.1-0.9,1.8-0.9
		s1.3,0.3,1.7,0.8l0.1-0.6h1.3v6.1c0,0.8-0.3,1.5-0.8,2s-1.2,0.7-2.1,0.7c-0.5,0-0.9-0.1-1.4-0.3s-0.8-0.4-1-0.8l0.7-0.9
		c0.4,0.5,1,0.8,1.6,0.8c0.5,0,0.8-0.1,1.1-0.4s0.4-0.6,0.4-1.1v-0.4c-0.4,0.5-1,0.7-1.6,0.7c-0.7,0-1.3-0.3-1.8-0.9
		S48.6,31.8,48.6,30.8z M50,30.9c0,0.6,0.1,1.1,0.4,1.5S51,33,51.5,33c0.6,0,1-0.2,1.3-0.7v-2.8c-0.3-0.5-0.7-0.7-1.3-0.7
		c-0.5,0-0.8,0.2-1.1,0.6S50,30.2,50,30.9z"/>
</g>
</svg>
